<?xml version="1.0" encoding="UTF-8" standalone="no"?>
<svg width="1200" height="800" viewBox="0 0 1200 800" xmlns="http://www.w3.org/2000/svg">
  <defs>
    <filter id="glow" x="-50%" y="-50%" width="200%" height="200%">
      <feGaussianBlur stdDeviation="15" result="blur" />
      <feComposite in="SourceGraphic" in2="blur" operator="over" />
    </filter>
    <filter id="smallGlow" x="-50%" y="-50%" width="200%" height="200%">
      <feGaussianBlur stdDeviation="5" result="blur" />
      <feComposite in="SourceGraphic" in2="blur" operator="over" />
    </filter>
    <radialGradient id="blueGradient" cx="0.5" cy="0.5" r="0.5" fx="0.5" fy="0.5">
      <stop offset="0%" stop-color="#00e1ff" stop-opacity="0.7" />
      <stop offset="100%" stop-color="#00e1ff" stop-opacity="0" />
    </radialGradient>
    <radialGradient id="pinkGradient" cx="0.5" cy="0.5" r="0.5" fx="0.5" fy="0.5">
      <stop offset="0%" stop-color="#f618f6" stop-opacity="0.7" />
      <stop offset="100%" stop-color="#f618f6" stop-opacity="0" />
    </radialGradient>
    <radialGradient id="greenGradient" cx="0.5" cy="0.5" r="0.5" fx="0.5" fy="0.5">
      <stop offset="0%" stop-color="#0cff0c" stop-opacity="0.7" />
      <stop offset="100%" stop-color="#0cff0c" stop-opacity="0" />
    </radialGradient>
    <radialGradient id="purpleGradient" cx="0.5" cy="0.5" r="0.5" fx="0.5" fy="0.5">
      <stop offset="0%" stop-color="#bc13fe" stop-opacity="0.7" />
      <stop offset="100%" stop-color="#bc13fe" stop-opacity="0" />
    </radialGradient>
  </defs>

  <!-- Background glow effects -->
  <circle cx="200" cy="150" r="350" fill="url(#blueGradient)" opacity="0.15" filter="url(#glow)" />
  <circle cx="900" cy="200" r="300" fill="url(#pinkGradient)" opacity="0.15" filter="url(#glow)" />
  <circle cx="300" cy="600" r="250" fill="url(#greenGradient)" opacity="0.15" filter="url(#glow)" />
  <circle cx="1000" cy="650" r="280" fill="url(#purpleGradient)" opacity="0.15" filter="url(#glow)" />

  <!-- Diagonal neon lines -->
  <line x1="0" y1="0" x2="1200" y2="800" stroke="#00e1ff" stroke-width="1" opacity="0.3" filter="url(#smallGlow)" />
  <line x1="1200" y1="0" x2="0" y2="800" stroke="#f618f6" stroke-width="1" opacity="0.3" filter="url(#smallGlow)" />
  
  <!-- Horizontal lines with glow -->
  <line x1="0" y1="200" x2="1200" y2="200" stroke="#0cff0c" stroke-width="1" opacity="0.2" filter="url(#smallGlow)" />
  <line x1="0" y1="600" x2="1200" y2="600" stroke="#bc13fe" stroke-width="1" opacity="0.2" filter="url(#smallGlow)" />

  <!-- Small glowing dots -->
  <g filter="url(#smallGlow)">
    <circle cx="100" cy="100" r="2" fill="#00e1ff" opacity="0.8" />
    <circle cx="300" cy="200" r="2" fill="#f618f6" opacity="0.8" />
    <circle cx="500" cy="300" r="2" fill="#0cff0c" opacity="0.8" />
    <circle cx="700" cy="400" r="2" fill="#bc13fe" opacity="0.8" />
    <circle cx="900" cy="500" r="2" fill="#00e1ff" opacity="0.8" />
    <circle cx="1100" cy="600" r="2" fill="#f618f6" opacity="0.8" />
    <circle cx="200" cy="700" r="2" fill="#0cff0c" opacity="0.8" />
    <circle cx="400" cy="100" r="2" fill="#bc13fe" opacity="0.8" />
    <circle cx="600" cy="200" r="2" fill="#00e1ff" opacity="0.8" />
    <circle cx="800" cy="300" r="2" fill="#f618f6" opacity="0.8" />
    <circle cx="1000" cy="400" r="2" fill="#0cff0c" opacity="0.8" />
    <circle cx="1200" cy="500" r="2" fill="#bc13fe" opacity="0.8" />
  </g>

  <!-- Neon shapes -->
  <rect x="100" y="400" width="100" height="100" fill="none" stroke="#00e1ff" stroke-width="1" opacity="0.3" filter="url(#smallGlow)" />
  <rect x="1000" y="300" width="100" height="100" fill="none" stroke="#f618f6" stroke-width="1" opacity="0.3" filter="url(#smallGlow)" />
  <circle cx="600" cy="400" r="50" fill="none" stroke="#0cff0c" stroke-width="1" opacity="0.3" filter="url(#smallGlow)" />
</svg>