<?xml version="1.0" encoding="UTF-8" standalone="no"?>
<svg width="200" height="60" viewBox="0 0 200 60" xmlns="http://www.w3.org/2000/svg">
  <defs>
    <filter id="neonGlow" x="-50%" y="-50%" width="200%" height="200%">
      <feGaussianBlur stdDeviation="3" result="blur" />
      <feComposite in="SourceGraphic" in2="blur" operator="over" />
    </filter>
    <filter id="transparentNeonGlow" x="-50%" y="-50%" width="200%" height="200%">
      <feGaussianBlur stdDeviation="4" result="blur" />
      <feComposite in="SourceGraphic" in2="blur" operator="over" />
      <feColorMatrix type="matrix" values="1 0 0 0 0  0 1 0 0 0  0 0 1 0 0  0 0 0 0.7 0" result="transparent" />
    </filter>
    <linearGradient id="textGradient" x1="0%" y1="0%" x2="100%" y2="0%">
      <stop offset="0%" stop-color="#00e1ff" />
      <stop offset="50%" stop-color="#f618f6" />
      <stop offset="100%" stop-color="#0cff0c" />
    </linearGradient>
  </defs>

  <!-- Controller Icon -->
  <g filter="url(#transparentNeonGlow)" opacity="0.85">
    <path d="M40 10 C 35 10, 30 12, 25 17 L 15 17 C 12 17, 10 19, 10 22 L 10 38 C 10 41, 12 43, 15 43 L 25 43 C 30 48, 35 50, 40 50 C 45 50, 50 48, 55 43 L 65 43 C 68 43, 70 41, 70 38 L 70 22 C 70 19, 68 17, 65 17 L 55 17 C 50 12, 45 10, 40 10 Z" 
          stroke="url(#textGradient)" stroke-width="2" fill="none" />
    
    <!-- Buttons -->
    <circle cx="55" cy="25" r="3" fill="#f618f6" opacity="0.9" />
    <circle cx="62" cy="30" r="3" fill="#00e1ff" opacity="0.9" />
    <circle cx="55" cy="35" r="3" fill="#0cff0c" opacity="0.9" />
    <circle cx="48" cy="30" r="3" fill="#ffff33" opacity="0.9" />
    
    <!-- D-pad -->
    <rect x="20" y="25" width="10" height="2" fill="#f9f9f9" opacity="0.8" />
    <rect x="24" y="21" width="2" height="10" fill="#f9f9f9" opacity="0.8" />
  </g>
  
  <!-- Text -->
  <text x="80" y="35" font-family="Orbitron, sans-serif" font-size="24" font-weight="bold" fill="url(#textGradient)" filter="url(#transparentNeonGlow)" opacity="0.85">NEON</text>
</svg>